<?xml version="1.0" standalone="no"?>
<!DOCTYPE svg PUBLIC "-//W3C//DTD SVG 20010904//EN"
 "http://www.w3.org/TR/2001/REC-SVG-20010904/DTD/svg10.dtd">
<svg version="1.0" xmlns="http://www.w3.org/2000/svg"
 width="225.000000pt" height="225.000000pt" viewBox="0 0 225.000000 225.000000"
 preserveAspectRatio="xMidYMid meet">
<metadata>
Created by potrace 1.16, written by Peter Selinger 2001-2019
</metadata>
<g transform="translate(0.000000,225.000000) scale(0.100000,-0.100000)"
fill="#000000" stroke="none">
<path d="M1133 2042 c-102 -37 -161 -92 -211 -200 -37 -78 -38 -216 -3 -305
46 -116 94 -170 342 -384 129 -112 242 -203 252 -203 21 0 460 380 505 437
112 143 141 324 74 467 -40 86 -82 130 -160 168 -59 29 -76 33 -147 33 -95 0
-166 -29 -229 -94 l-39 -40 -44 40 c-93 86 -233 119 -340 81z"/>
<path d="M27 1213 c-4 -3 -7 -196 -7 -428 0 -314 3 -424 12 -433 14 -14 534
-18 555 -4 6 4 13 25 15 47 4 51 3 51 182 -32 264 -123 416 -173 521 -173 238
0 798 282 906 456 18 30 21 45 16 96 -8 92 -61 149 -152 163 -62 9 -103 -13
-230 -117 -104 -86 -184 -141 -221 -152 -18 -6 -22 -1 -27 29 -17 104 -119
159 -322 171 -97 6 -102 8 -180 54 -112 67 -150 85 -230 108 -58 18 -206 42
-252 42 -9 0 -13 26 -15 88 l-3 87 -281 3 c-154 1 -283 -1 -287 -5z m503 -98
l0 -35 -220 0 -220 0 0 35 0 35 220 0 220 0 0 -35z m0 -160 l0 -45 -220 0
-220 0 0 45 0 45 220 0 220 0 0 -45z m242 -10 c93 -19 174 -54 285 -121 l94
-57 123 -7 c157 -10 226 -38 249 -102 6 -17 -11 -18 -278 -18 -279 0 -284 0
-299 -22 -11 -15 -12 -26 -5 -40 9 -17 30 -18 353 -18 l343 0 59 30 c32 16 93
57 134 90 193 158 215 168 280 135 39 -20 58 -81 40 -125 -26 -63 -194 -182
-405 -286 -176 -88 -296 -126 -410 -132 -136 -6 -211 16 -497 149 -81 38 -165
74 -188 81 l-40 13 0 222 0 223 48 0 c26 0 77 -7 114 -15z m-242 -150 l0 -45
-220 0 -220 0 0 38 c0 21 3 42 7 45 3 4 102 7 220 7 l213 0 0 -45z m0 -165 l0
-40 -220 0 -220 0 0 40 0 40 220 0 220 0 0 -40z m0 -165 l0 -45 -220 0 -220 0
0 45 0 45 220 0 220 0 0 -45z"/>
</g>
</svg>
