<svg id="Layer_35" enable-background="new 0 0 64 64" height="512" viewBox="0 0 64 64" width="512" xmlns="http://www.w3.org/2000/svg"><path d="m62 6v3c0 1.33-.86 2.45-2.06 2.84-.29.11-.61.16-.94.16h-2c-.33 0-.65-.05-.94-.16-1.2-.39-2.06-1.51-2.06-2.84v-3c0-2.21 1.79-4 4-4 1.1 0 2.1.45 2.83 1.17.72.73 1.17 1.73 1.17 2.83z" fill="#ccd1d9"/><path d="m48 11.46v11.54c0 1.1-.9 2-2 2-.55 0-1.05-.22-1.41-.59-.37-.36-.59-.86-.59-1.41v-11.54c.59.34 1.27.54 2 .54s1.41-.2 2-.54z" fill="#969faa"/><path d="m60 12v11c0 1.1-.9 2-2 2-.55 0-1.05-.22-1.41-.59-.37-.36-.59-.86-.59-1.41v-11l.06-.16c.29.11.61.16.94.16h2c.33 0 .65-.05.94-.16z" fill="#969faa"/><path d="m18 26h-12v-13h-3l9-11 9 11h-3z" fill="#b4dd7f"/><path d="m22 41v7.56c0 6.2-4.06 11.66-10 13.44-2.97-.89-5.47-2.7-7.23-5.06-1.75-2.36-2.77-5.28-2.77-8.38v-7.56l10-2z" fill="#e6e9ed"/><path d="m18 48v4h-4v4h-4v-4h-4v-4h4v-4h4v4z" fill="#fcd770"/><path d="m58 62h-12c0-1.1.45-2.1 1.17-2.83.73-.72 1.73-1.17 2.83-1.17h4c2.21 0 4 1.79 4 4z" fill="#fcd770"/><path d="m54 52v6h-4v-6l.11-.31c.59.2 1.23.31 1.89.31s1.3-.11 1.89-.31z" fill="#ffc729"/><path d="m57.2 48.99c-.73 1.27-1.91 2.24-3.31 2.7-.59.2-1.23.31-1.89.31s-1.3-.11-1.89-.31c-.9-.29-1.7-.79-2.35-1.45-.37-.37-.7-.79-.96-1.25-.51-.88-.8-1.9-.8-2.99v-5-2h12v2 5c0 1.09-.29 2.11-.8 2.99z" fill="#fcd770"/><path d="m32 36v12c0 1.1-.9 2-2 2-.55 0-1.05-.22-1.41-.59-.37-.36-.59-.86-.59-1.41v-10-2z" fill="#cf9e76"/><path d="m36 38v10c0 .55-.22 1.05-.59 1.41-.36.37-.86.59-1.41.59-1.1 0-2-.9-2-2v-12h4z" fill="#cf9e76"/><path d="m40 35c0 1.66-1.34 3-3 3h-1v-2h-4-4v2h-1c-1.66 0-3-1.34-3-3v-3c0-3.96 2.88-7.25 6.66-7.89l-.66 5.89 2 3 2-3-.66-5.89c1.67.29 3.17 1.09 4.32 2.23 1.44 1.45 2.34 3.45 2.34 5.66z" fill="#b4dd7f"/><path d="m33.34 24.11.66 5.89-2 3-2-3 .66-5.89c.44-.07.88-.11 1.34-.11s.9.04 1.34.11z" fill="#e6e9ed"/><circle cx="32" cy="19" fill="#f0d0b4" r="5"/><path d="m41 32c0-3.672-2.213-6.833-5.374-8.231 1.439-1.097 2.374-2.824 2.374-4.769 0-3.309-2.691-6-6-6s-6 2.691-6 6c0 1.945.935 3.672 2.374 4.769-3.161 1.398-5.374 4.559-5.374 8.231v3c0 2.206 1.794 4 4 4v9c0 1.654 1.346 3 3 3 .771 0 1.468-.301 2-.78.532.48 1.229.78 2 .78 1.654 0 3-1.346 3-3v-9c2.206 0 4-1.794 4-4zm-8.034-2.251-.966 1.448-.966-1.449.525-4.726c.147-.009.292-.022.441-.022s.294.013.441.022zm-4.966-10.749c0-2.206 1.794-4 4-4s4 1.794 4 4-1.794 4-4 4-4-1.794-4-4zm11 16c0 1.103-.897 2-2 2v-6h-2v17c0 .551-.448 1-1 1s-1-.449-1-1v-12h-2v12c0 .551-.448 1-1 1s-1-.449-1-1v-17h-2v6c-1.103 0-2-.897-2-2v-3c0-2.977 1.871-5.519 4.497-6.529l-.531 4.781 3.034 4.551 3.034-4.551-.531-4.781c2.626 1.01 4.497 3.552 4.497 6.529z"/><path d="m12 14c.552 0 1 .449 1 1h2c0-1.302-.839-2.402-2-2.816v-2.184h-2v2h-2v3c0 1.654 1.346 3 3 3 .552 0 1 .449 1 1v1h-1c-.552 0-1-.449-1-1h-2c0 1.302.839 2.402 2 2.816v2.184h2v-2h2v-3c0-1.654-1.346-3-3-3-.552 0-1-.449-1-1v-1z"/><path d="m5 22h2v4h-2z"/><path d="m5 20h2v-8h-1.89l6.89-8.421 6.89 8.421h-1.89v10h2v-8h4.11l-11.11-13.579-11.11 13.579h4.11z"/><path d="m17 24h2v2h-2z"/><path d="m43 11.974v11.026c0 1.654 1.346 3 3 3s3-1.346 3-3v-11.026c1.207-.914 2-2.348 2-3.974v-7h-2v7c0 1.302-.839 2.402-2 2.816v-9.816h-2v9.816c-1.161-.414-2-1.514-2-2.816v-7h-2v7c0 1.627.793 3.061 2 3.974zm4 11.026c0 .551-.448 1-1 1s-1-.449-1-1v-10.101c.323.066.658.101 1 .101s.677-.035 1-.101z"/><path d="m58 1c-2.757 0-5 2.243-5 5v3c0 1.474.81 2.75 2 3.444v10.556c0 1.654 1.346 3 3 3s3-1.346 3-3v-10.556c1.19-.694 2-1.97 2-3.444v-3c0-2.757-2.243-5-5-5zm1 22c0 .551-.448 1-1 1s-1-.449-1-1v-10h2zm2-14c0 1.103-.897 2-2 2h-2c-1.103 0-2-.897-2-2v-3c0-1.654 1.346-3 3-3s3 1.346 3 3z"/><path d="m1 40.18v8.379c0 6.689 4.305 12.476 10.713 14.398l.287.087.287-.086c6.408-1.922 10.713-7.709 10.713-14.398v-8.38l-11-2.2zm20 8.38c0 5.699-3.604 10.642-9 12.393-5.396-1.751-9-6.694-9-12.393v-6.74l9-1.8 9 1.8z"/><path d="m9 43v4h-4v6h4v4h6v-4h4v-6h-4v-4zm8 6v2h-4v4h-2v-4h-4v-2h4v-4h2v4z"/><path d="m60 40h-1v-2h-14v2h-1c-1.654 0-3 1.346-3 3v1c0 3.044 2.28 5.56 5.222 5.944.696 1.017 1.657 1.836 2.778 2.371v4.786c-2.279.465-4 2.484-4 4.899v1h14v-1c0-2.414-1.721-4.434-4-4.899v-4.786c1.122-.535 2.082-1.354 2.778-2.371 2.942-.384 5.222-2.9 5.222-5.944v-1c0-1.654-1.346-3-3-3zm-17 4v-1c0-.551.448-1 1-1h1v4c0 .529.064 1.043.176 1.539-1.286-.665-2.176-1.994-2.176-3.539zm13.829 17h-9.658c.413-1.164 1.525-2 2.829-2h4c1.304 0 2.416.836 2.829 2zm-3.829-4h-2v-4.08c.328.047.66.08 1 .08s.672-.033 1-.08zm-1-6c-2.757 0-5-2.243-5-5v-6h10v6c0 2.757-2.243 5-5 5zm9-7c0 1.545-.89 2.873-2.176 3.539.112-.496.176-1.01.176-1.539v-4h1c.552 0 1 .449 1 1z"/></svg>